<svg xmlns="http://www.w3.org/2000/svg" viewBox="0 0 96.56 157.41"><path d="M17.88,146.56c0.46-1.16,35-84.91,39.4-96.48,2.23,5,4.9,10,7.64,15.1C71.84,78.13,79,91.52,79,104.58c0,29-19.63,34-25.64,34.92a9,9,0,0,0,1.28,17.91,9.19,9.19,0,0,0,1.3-.09C74.88,154.57,97,139.12,97,104.58,97,87,88.39,70.91,80.79,56.7,74.34,44.63,68.45,33.54,70,25.36c1.11-5.92,5.32-9.28,11.83-9.7A2.55,2.55,0,0,0,84,14l3.2-8.3a2.51,2.51,0,0,0-.95-3.36C84.86,1.23,80.68,0,77.14,0,67.72,0,56.23,3.08,46.22,28,45.81,29,1.74,138.19,1.1,139.82A9,9,0,0,0,17.88,146.56Z" transform="translate(-0.44 0)" fill="#040000"/></svg>